<?xml version="1.0"?>
<svg xmlns="http://www.w3.org/2000/svg" xmlns:xlink="http://www.w3.org/1999/xlink" xmlns:svgjs="http://svgjs.com/svgjs" version="1.1" width="512" height="512" x="0" y="0" viewBox="0 0 24 24" style="enable-background:new 0 0 512 512" xml:space="preserve"><g><circle xmlns="http://www.w3.org/2000/svg" cx="12" cy="6" r="4" fill="#fff9f9" data-original="#000000" style=""/><path xmlns="http://www.w3.org/2000/svg" d="m15.25 12h-6.5c-2.619 0-4.75 2.131-4.75 4.75v2.5c0 .414.336.75.75.75h14.5c.414 0 .75-.336.75-.75v-2.5c0-2.619-2.131-4.75-4.75-4.75z" fill="#fff9f9" data-original="#000000" style=""/><path xmlns="http://www.w3.org/2000/svg" d="m5 0h-2c-1.654 0-3 1.346-3 3v2c0 .553.448 1 1 1s1-.447 1-1v-2c0-.552.449-1 1-1h2c.552 0 1-.447 1-1s-.448-1-1-1z" fill="#fff9f9" data-original="#000000" style=""/><path xmlns="http://www.w3.org/2000/svg" d="m5 22h-2c-.551 0-1-.448-1-1v-2c0-.553-.448-1-1-1s-1 .447-1 1v2c0 1.654 1.346 3 3 3h2c.552 0 1-.447 1-1s-.448-1-1-1z" fill="#fff9f9" data-original="#000000" style=""/><path xmlns="http://www.w3.org/2000/svg" d="m21 0h-2c-.552 0-1 .447-1 1s.448 1 1 1h2c.551 0 1 .448 1 1v2c0 .553.448 1 1 1s1-.447 1-1v-2c0-1.654-1.346-3-3-3z" fill="#fff9f9" data-original="#000000" style=""/><path xmlns="http://www.w3.org/2000/svg" d="m23 18c-.552 0-1 .447-1 1v2c0 .552-.449 1-1 1h-2c-.552 0-1 .447-1 1s.448 1 1 1h2c1.654 0 3-1.346 3-3v-2c0-.553-.448-1-1-1z" fill="#fff9f9" data-original="#000000" style=""/></g></svg>
